<svg width="42" height="41" viewBox="0 0 42 41" fill="none" xmlns="http://www.w3.org/2000/svg">
<rect x="6.4541" y="8.26099" width="28.8477" height="24.0398" fill="white"/>
<path d="M20.8777 0.0524902C9.72387 0.0524902 0.649414 9.12694 0.649414 20.2808C0.649414 31.4338 9.72387 40.509 20.8777 40.509C32.0307 40.509 41.106 31.4338 41.106 20.2808C41.106 9.12694 32.0323 0.0524902 20.8777 0.0524902ZM25.9083 20.9929H22.6173V32.7228H17.7407C17.7407 32.7228 17.7407 26.3136 17.7407 20.9929H15.4226V16.8472H17.7407V14.1657C17.7407 12.2452 18.6533 9.24427 22.6621 9.24427L26.2758 9.25812V13.2824C26.2758 13.2824 24.0799 13.2824 23.6529 13.2824C23.226 13.2824 22.6189 13.4959 22.6189 14.4117V16.848H26.3344L25.9083 20.9929Z" fill="#EA3236"/>
</svg>
