<svg width="42" height="41" viewBox="0 0 42 41" fill="none" xmlns="http://www.w3.org/2000/svg">
<rect x="6.58594" y="8.08716" width="28.8477" height="24.0398" fill="white"/>
<path d="M24.8601 20.1066C24.8601 22.2324 23.1369 23.9556 21.0111 23.9556C18.8853 23.9556 17.1621 22.2324 17.1621 20.1066C17.1621 17.9808 18.8853 16.2576 21.0111 16.2576C23.1369 16.2576 24.8601 17.9808 24.8601 20.1066Z" fill="#EA3236"/>
<path d="M30.0111 13.2969C29.8261 12.7956 29.5309 12.3418 29.1474 11.9692C28.7749 11.5857 28.3214 11.2905 27.8197 11.1055C27.4128 10.9475 26.8016 10.7594 25.6758 10.7081C24.4579 10.6526 24.0928 10.6406 21.0096 10.6406C17.9262 10.6406 17.561 10.6523 16.3435 10.7078C15.2177 10.7594 14.6062 10.9475 14.1996 11.1055C13.6979 11.2905 13.2441 11.5857 12.8719 11.9692C12.4883 12.3418 12.1932 12.7953 12.0078 13.2969C11.8498 13.7038 11.6617 14.3154 11.6105 15.4412C11.5549 16.6587 11.543 17.0238 11.543 20.1073C11.543 23.1904 11.5549 23.5556 11.6105 24.7734C11.6617 25.8992 11.8498 26.5105 12.0078 26.9173C12.1932 27.419 12.488 27.8725 12.8716 28.245C13.2441 28.6286 13.6976 28.9238 14.1993 29.1088C14.6062 29.2671 15.2177 29.4552 16.3435 29.5065C17.561 29.562 17.9259 29.5736 21.0093 29.5736C24.0931 29.5736 24.4582 29.562 25.6755 29.5065C26.8013 29.4552 27.4128 29.2671 27.8197 29.1088C28.8267 28.7203 29.6227 27.9244 30.0111 26.9173C30.1692 26.5105 30.3572 25.8992 30.4088 24.7734C30.4643 23.5556 30.476 23.1904 30.476 20.1073C30.476 17.0238 30.4643 16.6587 30.4088 15.4412C30.3576 14.3154 30.1695 13.7038 30.0111 13.2969ZM21.0096 26.0364C17.7347 26.0364 15.0799 23.3819 15.0799 20.107C15.0799 16.8321 17.7347 14.1776 21.0096 14.1776C24.2842 14.1776 26.939 16.8321 26.939 20.107C26.939 23.3819 24.2842 26.0364 21.0096 26.0364ZM27.1735 15.3289C26.4082 15.3289 25.7878 14.7084 25.7878 13.9432C25.7878 13.1779 26.4082 12.5575 27.1735 12.5575C27.9387 12.5575 28.5592 13.1779 28.5592 13.9432C28.5588 14.7084 27.9387 15.3289 27.1735 15.3289Z" fill="#EA3236"/>
<path d="M21.0125 -0.00244141C9.90819 -0.00244141 0.90332 9.00243 0.90332 20.1067C0.90332 31.211 9.90819 40.2158 21.0125 40.2158C32.1167 40.2158 41.1216 31.211 41.1216 20.1067C41.1216 9.00243 32.1167 -0.00244141 21.0125 -0.00244141ZM32.4899 24.8673C32.434 26.0965 32.2386 26.9358 31.9532 27.6703C31.3533 29.2214 30.1272 30.4476 28.5761 31.0474C27.8418 31.3328 27.0023 31.5279 25.7734 31.5841C24.5421 31.6402 24.1487 31.6537 21.0128 31.6537C17.8766 31.6537 17.4835 31.6402 16.2518 31.5841C15.0229 31.5279 14.1834 31.3328 13.4491 31.0474C12.6784 30.7575 11.9806 30.303 11.4037 29.7154C10.8164 29.1389 10.362 28.4408 10.072 27.6703C9.78668 26.9361 9.59122 26.0965 9.53538 24.8676C9.47861 23.636 9.46542 23.2426 9.46542 20.1067C9.46542 16.9708 9.47861 16.5774 9.53507 15.3461C9.59092 14.1169 9.78607 13.2776 10.0714 12.5431C10.3614 11.7726 10.8161 11.0745 11.4037 10.498C11.9803 9.91037 12.6784 9.45594 13.4488 9.16597C14.1834 8.88061 15.0226 8.68546 16.2518 8.62931C17.4832 8.57315 17.8766 8.55965 21.0125 8.55965C24.1484 8.55965 24.5418 8.57315 25.7731 8.62961C27.0023 8.68546 27.8415 8.88061 28.5761 9.16566C29.3466 9.45563 30.0446 9.91037 30.6215 10.498C31.2088 11.0748 31.6635 11.7726 31.9532 12.5431C32.2389 13.2776 32.434 14.1169 32.4902 15.3461C32.5463 16.5774 32.5595 16.9708 32.5595 20.1067C32.5595 23.2426 32.5463 23.636 32.4899 24.8673Z" fill="#EA3236"/>
</svg>
