<svg width="41" height="41" viewBox="0 0 41 41" fill="none" xmlns="http://www.w3.org/2000/svg">
<rect x="6.06152" y="10.0498" width="28.8477" height="24.0398" fill="white"/>
<path d="M20.4851 0.19165C9.38085 0.19165 0.375977 9.19652 0.375977 20.3008C0.375977 31.4051 9.38085 40.4099 20.4851 40.4099C31.5894 40.4099 40.5943 31.4051 40.5943 20.3008C40.5943 9.19652 31.5894 0.19165 20.4851 0.19165ZM29.6667 15.8706C29.6756 16.0685 29.6799 16.2674 29.6799 16.4671C29.6799 22.5662 25.0374 29.5993 16.5474 29.5996C13.9408 29.5996 11.5152 28.8356 9.47259 27.5263C9.83374 27.5689 10.2013 27.5901 10.5735 27.5901C12.7362 27.5901 14.7263 26.8525 16.3063 25.6144C14.2857 25.5769 12.5821 24.2425 11.9942 22.4085C12.2756 22.4625 12.5649 22.4919 12.8617 22.4919C13.2829 22.4919 13.691 22.4352 14.0789 22.3293C11.9669 21.9065 10.3759 20.04 10.3759 17.8049C10.3759 17.7841 10.3759 17.7654 10.3765 17.746C10.9985 18.0918 11.7098 18.2999 12.4671 18.3232C11.2277 17.4963 10.4131 16.0826 10.4131 14.4812C10.4131 13.6356 10.6417 12.8433 11.0381 12.1612C13.3142 14.9541 16.7159 16.7908 20.552 16.9838C20.4729 16.6457 20.432 16.2934 20.432 15.9314C20.432 13.3834 22.4992 11.3162 25.0482 11.3162C26.3759 11.3162 27.575 11.8774 28.4173 12.7746C29.4688 12.5672 30.4562 12.183 31.3482 11.6543C31.003 12.7316 30.2715 13.6356 29.3185 14.2072C30.2522 14.0955 31.142 13.8479 31.969 13.4803C31.3513 14.4061 30.5679 15.2192 29.6667 15.8706Z" fill="#EA3236"/>
</svg>
